{
	"asset":{
		"generator":"Khronos glTF Blender I/O v3.5.30",
		"version":"2.0"
	},
	"scene":0,
	"scenes":[
		{
			"name":"Scene",
			"nodes":[
				0
			]
		}
	],
	"nodes":[
		{
			"mesh":0,
			"name":"Plane"
		}
	],
	"meshes":[
		{
			"name":"Plane",
			"primitives":[
				{
					"attributes":{
						"POSITION":0,
						"NORMAL":1
					},
					"indices":2
				}
			]
		}
	],
	"accessors":[
		{
			"bufferView":0,
			"componentType":5126,
			"count":11566,
			"max":[
				1,
				0.75,
				0
			],
			"min":[
				-1,
				-0.75,
				0
			],
			"type":"VEC3"
		},
		{
			"bufferView":1,
			"componentType":5126,
			"count":11566,
			"type":"VEC3"
		},
		{
			"bufferView":2,
			"componentType":5123,
			"count":31896,
			"type":"SCALAR"
		}
	],
	"bufferViews":[
		{
			"buffer":0,
			"byteLength":138792,
			"byteOffset":0,
			"target":34962
		},
		{
			"buffer":0,
			"byteLength":138792,
			"byteOffset":138792,
			"target":34962
		},
		{
			"buffer":0,
			"byteLength":63792,
			"byteOffset":277584,
			"target":34963
		}
	],
	"buffers":[
		{
			"byteLength":341376,
			"uri":"data:application/octet-stream;base64,"
		}
	]
}
