{
	"asset":{
		"generator":"Khronos glTF Blender I/O v3.5.30",
		"version":"2.0"
	},
	"scene":0,
	"scenes":[
		{
			"name":"Scene",
			"nodes":[
				0,
				1,
				2,
				3,
				4,
				5,
				6,
				7,
				8,
				9,
				10
			]
		}
	],
	"nodes":[
		{
			"mesh":0,
			"name":"Plane"
		},
		{
			"name":"Empty",
			"translation":[
				-0.04545454680919647,
				0.034090910106897354,
				0
			]
		},
		{
			"name":"Empty.001",
			"translation":[
				0.04545454680919647,
				0.034090910106897354,
				0
			]
		},
		{
			"name":"Empty.002",
			"translation":[
				-0.04545454680919647,
				-0.034090910106897354,
				0
			]
		},
		{
			"name":"Empty.003",
			"translation":[
				0.04545454680919647,
				-0.034090910106897354,
				0
			]
		},
		{
			"name":"Empty.004",
			"translation":[
				-0.04545454680919647,
				0,
				0
			]
		},
		{
			"name":"Empty.005",
			"translation":[
				0.04545454680919647,
				0,
				0
			]
		},
		{
			"mesh":1,
			"name":"North Edge Selection"
		},
		{
			"mesh":2,
			"name":"East Edge Selection"
		},
		{
			"mesh":3,
			"name":"South Edge Selection"
		},
		{
			"mesh":4,
			"name":"West Edge Selection"
		}
	],
	"meshes":[
		{
			"name":"Plane",
			"primitives":[
				{
					"attributes":{
						"POSITION":0,
						"TEXCOORD_0":1,
						"NORMAL":2
					},
					"indices":3
				}
			]
		},
		{
			"name":"Plane.002",
			"primitives":[
				{
					"attributes":{
						"POSITION":4,
						"TEXCOORD_0":5,
						"NORMAL":6
					},
					"indices":7
				}
			]
		},
		{
			"name":"Plane.003",
			"primitives":[
				{
					"attributes":{
						"POSITION":8,
						"TEXCOORD_0":9,
						"NORMAL":10
					},
					"indices":7
				}
			]
		},
		{
			"name":"Plane.004",
			"primitives":[
				{
					"attributes":{
						"POSITION":11,
						"TEXCOORD_0":12,
						"NORMAL":13
					},
					"indices":7
				}
			]
		},
		{
			"name":"Plane.005",
			"primitives":[
				{
					"attributes":{
						"POSITION":14,
						"TEXCOORD_0":15,
						"NORMAL":16
					},
					"indices":7
				}
			]
		}
	],
	"accessors":[
		{
			"bufferView":0,
			"componentType":5126,
			"count":47124,
			"max":[
				1.0049999952316284,
				0.7549999952316284,
				0.0024999999441206455
			],
			"min":[
				-1.0049999952316284,
				-0.7549999952316284,
				-0.0024999999441206455
			],
			"type":"VEC3"
		},
		{
			"bufferView":1,
			"componentType":5126,
			"count":47124,
			"type":"VEC2"
		},
		{
			"bufferView":2,
			"componentType":5126,
			"count":47124,
			"type":"VEC3"
		},
		{
			"bufferView":3,
			"componentType":5123,
			"count":125808,
			"type":"SCALAR"
		},
		{
			"bufferView":4,
			"componentType":5126,
			"count":4,
			"max":[
				0.02663104236125946,
				-0.7398011684417725,
				0.03843775391578674
			],
			"min":[
				-0.02663104236125946,
				-0.7598011493682861,
				0.03843775391578674
			],
			"type":"VEC3"
		},
		{
			"bufferView":5,
			"componentType":5126,
			"count":4,
			"type":"VEC2"
		},
		{
			"bufferView":6,
			"componentType":5126,
			"count":4,
			"type":"VEC3"
		},
		{
			"bufferView":7,
			"componentType":5123,
			"count":6,
			"type":"SCALAR"
		},
		{
			"bufferView":8,
			"componentType":5126,
			"count":4,
			"max":[
				1.0098873376846313,
				0.19707323610782623,
				0.03843775391578674
			],
			"min":[
				0.9898873567581177,
				-0.19707322120666504,
				0.03843775391578674
			],
			"type":"VEC3"
		},
		{
			"bufferView":9,
			"componentType":5126,
			"count":4,
			"type":"VEC2"
		},
		{
			"bufferView":10,
			"componentType":5126,
			"count":4,
			"type":"VEC3"
		},
		{
			"bufferView":11,
			"componentType":5126,
			"count":4,
			"max":[
				0.026480214670300484,
				0.7605850100517273,
				0.03843775391578674
			],
			"min":[
				-0.02648022212088108,
				0.7405850291252136,
				0.03843775391578674
			],
			"type":"VEC3"
		},
		{
			"bufferView":12,
			"componentType":5126,
			"count":4,
			"type":"VEC2"
		},
		{
			"bufferView":13,
			"componentType":5126,
			"count":4,
			"type":"VEC3"
		},
		{
			"bufferView":14,
			"componentType":5126,
			"count":4,
			"max":[
				-0.9886153936386108,
				0.19707317650318146,
				0.03843775391578674
			],
			"min":[
				-1.0086153745651245,
				-0.19707328081130981,
				0.03843775391578674
			],
			"type":"VEC3"
		},
		{
			"bufferView":15,
			"componentType":5126,
			"count":4,
			"type":"VEC2"
		},
		{
			"bufferView":16,
			"componentType":5126,
			"count":4,
			"type":"VEC3"
		}
	],
	"bufferViews":[
		{
			"buffer":0,
			"byteLength":565488,
			"byteOffset":0,
			"target":34962
		},
		{
			"buffer":0,
			"byteLength":376992,
			"byteOffset":565488,
			"target":34962
		},
		{
			"buffer":0,
			"byteLength":565488,
			"byteOffset":942480,
			"target":34962
		},
		{
			"buffer":0,
			"byteLength":251616,
			"byteOffset":1507968,
			"target":34963
		},
		{
			"buffer":0,
			"byteLength":48,
			"byteOffset":1759584,
			"target":34962
		},
		{
			"buffer":0,
			"byteLength":32,
			"byteOffset":1759632,
			"target":34962
		},
		{
			"buffer":0,
			"byteLength":48,
			"byteOffset":1759664,
			"target":34962
		},
		{
			"buffer":0,
			"byteLength":12,
			"byteOffset":1759712,
			"target":34963
		},
		{
			"buffer":0,
			"byteLength":48,
			"byteOffset":1759724,
			"target":34962
		},
		{
			"buffer":0,
			"byteLength":32,
			"byteOffset":1759772,
			"target":34962
		},
		{
			"buffer":0,
			"byteLength":48,
			"byteOffset":1759804,
			"target":34962
		},
		{
			"buffer":0,
			"byteLength":48,
			"byteOffset":1759852,
			"target":34962
		},
		{
			"buffer":0,
			"byteLength":32,
			"byteOffset":1759900,
			"target":34962
		},
		{
			"buffer":0,
			"byteLength":48,
			"byteOffset":1759932,
			"target":34962
		},
		{
			"buffer":0,
			"byteLength":48,
			"byteOffset":1759980,
			"target":34962
		},
		{
			"buffer":0,
			"byteLength":32,
			"byteOffset":1760028,
			"target":34962
		},
		{
			"buffer":0,
			"byteLength":48,
			"byteOffset":1760060,
			"target":34962
		}
	],
	"buffers":[
		{
			"byteLength":1760108,
			"uri":"data:application/octet-stream;base64,"
		}
	]
}
